<?xml version="1.0" encoding="UTF-8"?>
<svg xmlns="http://www.w3.org/2000/svg" xmlns:xlink="http://www.w3.org/1999/xlink" width="115pt" height="114pt" viewBox="0 0 115 114" version="1.1">
<g id="surface1">
<path style="fill:none;stroke-width:0.19925;stroke-linecap:butt;stroke-linejoin:miter;stroke:rgb(69.999695%,69.999695%,69.999695%);stroke-opacity:1;stroke-miterlimit:10;" d="M -56.691719 -56.692031 L 56.695 -56.692031 M -56.691719 -28.348281 L 56.695 -28.348281 M -56.691719 -0.000625 L 56.695 -0.000625 M -56.691719 28.347031 L 56.695 28.347031 M -56.691719 56.682969 L 56.695 56.682969 M -56.691719 -56.692031 L -56.691719 56.694687 M -28.347969 -56.692031 L -28.347969 56.694687 M -0.0003125 -56.692031 L -0.0003125 56.694687 M 28.347344 -56.692031 L 28.347344 56.694687 M 56.683281 -56.692031 L 56.683281 56.694687 " transform="matrix(1,0,0,-1,57.305,56.89)"/>
<path style="fill:none;stroke-width:0.3985;stroke-linecap:butt;stroke-linejoin:miter;stroke:rgb(0%,0%,0%);stroke-opacity:1;stroke-miterlimit:10;" d="M -56.691719 -0.000625 L 56.296562 -0.000625 " transform="matrix(1,0,0,-1,57.305,56.89)"/>
<path style="fill:none;stroke-width:0.3985;stroke-linecap:round;stroke-linejoin:round;stroke:rgb(0%,0%,0%);stroke-opacity:1;stroke-miterlimit:10;" d="M -2.072788 2.39 C -1.693881 0.956406 -0.850131 0.280625 0.00143125 -0.000625 C -0.850131 -0.277969 -1.693881 -0.957656 -2.072788 -2.39125 " transform="matrix(1,0,0,-1,113.79935,56.89)"/>
<path style="fill:none;stroke-width:0.3985;stroke-linecap:butt;stroke-linejoin:miter;stroke:rgb(0%,0%,0%);stroke-opacity:1;stroke-miterlimit:10;" d="M -0.0003125 -56.692031 L -0.0003125 56.29625 " transform="matrix(1,0,0,-1,57.305,56.89)"/>
<path style="fill:none;stroke-width:0.3985;stroke-linecap:round;stroke-linejoin:round;stroke:rgb(0%,0%,0%);stroke-opacity:1;stroke-miterlimit:10;" d="M -2.0731 2.390938 C -1.694194 0.957344 -0.850444 0.277656 0.00111875 0.0003125 C -0.850444 -0.277031 -1.694194 -0.956719 -2.0731 -2.390312 " transform="matrix(0,-1,-1,0,57.305,0.39565)"/>
<path style="fill:none;stroke-width:0.79701;stroke-linecap:butt;stroke-linejoin:miter;stroke:rgb(89.408875%,10.198975%,10.978699%);stroke-opacity:1;stroke-miterlimit:10;" d="M -25.441719 53.788437 L 53.78875 -25.442031 " transform="matrix(1,0,0,-1,57.305,56.89)"/>
<path style="fill-rule:nonzero;fill:rgb(89.408875%,10.198975%,10.978699%);fill-opacity:1;stroke-width:0.79701;stroke-linecap:butt;stroke-linejoin:miter;stroke:rgb(89.408875%,10.198975%,10.978699%);stroke-opacity:1;stroke-miterlimit:10;" d="M 5.439037 0.0000322732 L 1.287466 1.571684 L 2.665806 0.0000126631 L 1.287488 -1.571679 Z M 5.439037 0.0000322732 " transform="matrix(-0.70709,-0.7071,-0.7071,0.70709,33.60763,4.84592)"/>
<path style="fill-rule:nonzero;fill:rgb(89.408875%,10.198975%,10.978699%);fill-opacity:1;stroke-width:0.79701;stroke-linecap:butt;stroke-linejoin:miter;stroke:rgb(89.408875%,10.198975%,10.978699%);stroke-opacity:1;stroke-miterlimit:10;" d="M 5.439498 -0.0000628111 L 1.28813 1.571681 L 2.666366 0.0000156235 L 1.288041 -1.571571 Z M 5.439498 -0.0000628111 " transform="matrix(0.70714,0.7071,0.7071,-0.70714,109.34887,80.58728)"/>
</g>
</svg>
