<?xml version="1.0" encoding="iso-8859-1"?>
<!-- Generator: Adobe Illustrator 16.0.0, SVG Export Plug-In . SVG Version: 6.00 Build 0)  -->
<!DOCTYPE svg PUBLIC "-//W3C//DTD SVG 1.1//EN" "http://www.w3.org/Graphics/SVG/1.1/DTD/svg11.dtd">
<svg version="1.1" id="Capa_1" xmlns="http://www.w3.org/2000/svg" xmlns:xlink="http://www.w3.org/1999/xlink" x="0px" y="0px"
	 width="612px" height="612px" viewBox="0 0 612 612" style="enable-background:new 0 0 612 612;" xml:space="preserve">
<g>
	<g id="Attention" style="stroke:red;fill:red;">
		<g>
			<path d="M605.217,501.568l-255-442C341.394,44.302,324.887,34,306,34c-18.887,0-35.394,10.302-44.217,25.568l-255,442
				C2.482,509.048,0,517.735,0,527c0,28.152,22.848,51,51,51h510c28.152,0,51-22.848,51-51
				C612,517.735,609.535,509.048,605.217,501.568z M50.966,527.051L305.949,85H306l0.034,0.051L561,527L50.966,527.051z M306,408
				c-18.768,0-34,15.232-34,34c0,18.785,15.215,34,34,34s34-15.232,34-34S324.785,408,306,408z M272,255
				c0,1.938,0.17,3.859,0.476,5.712l16.745,99.145C290.598,367.897,297.585,374,306,374s15.402-6.103,16.762-14.144l16.745-99.145
				C339.83,258.859,340,256.938,340,255c0-18.768-15.215-34-34-34C287.232,221,272,236.232,272,255z"/>
		</g>
	</g>
</g>
</svg>
